<svg width="36" height="36" viewBox="0 0 36 36" fill="none" xmlns="http://www.w3.org/2000/svg">
<circle cx="18" cy="18" r="18" fill="#B02834"/>
<path d="M14.2701 18.918H16.1055V26.4741C16.1055 26.6233 16.2264 26.7442 16.3756 26.7442H19.4876C19.6368 26.7442 19.7577 26.6233 19.7577 26.4741V18.9535H21.8677C22.0049 18.9535 22.1203 18.8506 22.1359 18.7143L22.4564 15.9325C22.4652 15.856 22.441 15.7793 22.3898 15.7219C22.3385 15.6645 22.2651 15.6316 22.1882 15.6316H19.7578V13.8878C19.7578 13.3621 20.0408 13.0956 20.5991 13.0956C20.6787 13.0956 22.1882 13.0956 22.1882 13.0956C22.3374 13.0956 22.4582 12.9746 22.4582 12.8255V10.2721C22.4582 10.1229 22.3374 10.002 22.1882 10.002H19.9982C19.9828 10.0012 19.9485 10 19.8979 10C19.5179 10 18.1971 10.0746 17.1538 11.0344C15.9978 12.098 16.1585 13.3716 16.1969 13.5924V15.6315H14.2701C14.1209 15.6315 14 15.7524 14 15.9016V18.6478C14 18.797 14.1209 18.918 14.2701 18.918Z" fill="white"/>
</svg>
