<svg xmlns="http://www.w3.org/2000/svg" width="40.465" height="27.125" viewBox="0 0 40.465 27.125">
  <g id="Forward_30" data-name="Forward 30" transform="translate(3.955 -0.938)">
    <path id="Path_316" data-name="Path 316" d="M3.117.229A2.637,2.637,0,0,1,.958-.589,3.033,3.033,0,0,1,.287-2.578h1.1a2.732,2.732,0,0,0,.3,1.184,1.6,1.6,0,0,0,1.482.662,1.944,1.944,0,0,0,1.336-.445,1.462,1.462,0,0,0,.5-1.148,1.337,1.337,0,0,0-.53-1.213,2.683,2.683,0,0,0-1.474-.346l-.214,0-.22.009V-4.8q.164.018.275.023t.24.006a2.2,2.2,0,0,0,.973-.187,1.191,1.191,0,0,0,.668-1.172A1.144,1.144,0,0,0,4.289-7.1a1.662,1.662,0,0,0-1.037-.34,1.537,1.537,0,0,0-1.459.7,2.437,2.437,0,0,0-.252,1.1H.5A3.165,3.165,0,0,1,.873-7.23,2.364,2.364,0,0,1,3.141-8.4a3.073,3.073,0,0,1,1.986.571,2.009,2.009,0,0,1,.7,1.655,1.847,1.847,0,0,1-.416,1.254,1.747,1.747,0,0,1-.668.469,1.821,1.821,0,0,1,1.034.7,2.119,2.119,0,0,1,.372,1.269A2.586,2.586,0,0,1,5.361-.527,3.12,3.12,0,0,1,3.117.229Zm6.8-8.619a2.479,2.479,0,0,1,2.355,1.342,6,6,0,0,1,.563,2.842,6.843,6.843,0,0,1-.51,2.83A2.5,2.5,0,0,1,9.914.229a2.417,2.417,0,0,1-2.25-1.312,6.01,6.01,0,0,1-.615-2.941A7.267,7.267,0,0,1,7.418-6.48,2.526,2.526,0,0,1,9.92-8.391ZM9.908-.732a1.5,1.5,0,0,0,1.307-.727A5.26,5.26,0,0,0,11.7-4.166a6.688,6.688,0,0,0-.352-2.353,1.338,1.338,0,0,0-1.365-.923,1.427,1.427,0,0,0-1.362.876,6.049,6.049,0,0,0-.431,2.581,6.338,6.338,0,0,0,.275,2.063A1.5,1.5,0,0,0,9.908-.732Z" transform="translate(23.672 26.345)" fill="#272727"/>
    <path id="Path_315" data-name="Path 315" d="M27.344-24.062H25.828a.656.656,0,0,0-.656.672L25.3-18a13.548,13.548,0,0,0-11.344-6.062A13.592,13.592,0,0,0,.437-10.478,13.562,13.562,0,0,0,14,3.062,13.512,13.512,0,0,0,23.088-.432a.657.657,0,0,0,.026-.953L22.035-2.465a.658.658,0,0,0-.9-.03A10.68,10.68,0,0,1,14,.219,10.713,10.713,0,0,1,3.281-10.5,10.713,10.713,0,0,1,14-21.219a10.714,10.714,0,0,1,9.771,6.306l-6.912-.165a.656.656,0,0,0-.672.656v1.515a.656.656,0,0,0,.656.656h10.5A.656.656,0,0,0,28-12.906v-10.5A.656.656,0,0,0,27.344-24.062Z" transform="translate(-4.393 25)" fill="#272727"/>
  </g>
</svg>