<svg width="36" height="36" viewBox="0 0 36 36" fill="none" xmlns="http://www.w3.org/2000/svg">
<circle cx="18" cy="18" r="18" fill="#B02834"/>
<path d="M26.9543 14.2931C26.9121 13.3365 26.7574 12.6788 26.5358 12.109C26.3072 11.5041 25.9555 10.9625 25.4947 10.5123C25.0445 10.0551 24.4994 9.69983 23.9015 9.47479C23.3283 9.2532 22.6741 9.0985 21.7175 9.05633C20.7538 9.01058 20.4478 9 18.0035 9C15.5592 9 15.2532 9.01058 14.2931 9.05275C13.3365 9.09493 12.6788 9.24976 12.1091 9.47122C11.5041 9.69983 10.9625 10.0515 10.5123 10.5123C10.0551 10.9625 9.69996 11.5076 9.47479 12.1055C9.2532 12.6788 9.0985 13.3329 9.05633 14.2895C9.01058 15.2532 9 15.5592 9 18.0035C9 20.4478 9.01058 20.7538 9.05275 21.7139C9.09493 22.6705 9.24976 23.3282 9.47136 23.898C9.69996 24.5029 10.0551 25.0445 10.5123 25.4947C10.9625 25.9519 11.5076 26.3072 12.1055 26.5322C12.6788 26.7538 13.3329 26.9085 14.2896 26.9507C15.2497 26.993 15.5558 27.0034 18.0001 27.0034C20.4444 27.0034 20.7503 26.993 21.7105 26.9507C22.6671 26.9085 23.3247 26.7538 23.8945 26.5322C25.1044 26.0644 26.061 25.1078 26.5288 23.898C26.7502 23.3247 26.9051 22.6705 26.9472 21.7139C26.9894 20.7538 27 20.4478 27 18.0035C27 15.5592 26.9964 15.2532 26.9543 14.2931ZM25.333 21.6436C25.2943 22.5228 25.1466 22.9976 25.0235 23.3142C24.721 24.0985 24.0985 24.721 23.3142 25.0235C22.9976 25.1466 22.5194 25.2943 21.6436 25.3329C20.694 25.3752 20.4092 25.3856 18.0071 25.3856C15.6049 25.3856 15.3166 25.3752 14.3704 25.3329C13.4912 25.2943 13.0164 25.1466 12.6998 25.0235C12.3095 24.8792 11.9543 24.6506 11.6659 24.3517C11.367 24.0597 11.1384 23.708 10.9941 23.3177C10.871 23.0012 10.7233 22.5228 10.6847 21.6472C10.6424 20.6976 10.632 20.4126 10.632 18.0105C10.632 15.6084 10.6424 15.32 10.6847 14.374C10.7233 13.4947 10.871 13.02 10.9941 12.7034C11.1384 12.313 11.367 11.9578 11.6695 11.6693C11.9613 11.3704 12.313 11.1418 12.7034 10.9977C13.02 10.8746 13.4983 10.7269 14.374 10.6882C15.3236 10.646 15.6085 10.6354 18.0105 10.6354C20.4162 10.6354 20.701 10.646 21.6472 10.6882C22.5264 10.7269 23.0012 10.8746 23.3177 10.9977C23.708 11.1418 24.0633 11.3704 24.3517 11.6693C24.6506 11.9613 24.8792 12.313 25.0235 12.7034C25.1466 13.02 25.2943 13.4982 25.333 14.374C25.3752 15.3236 25.3858 15.6084 25.3858 18.0105C25.3858 20.4126 25.3752 20.694 25.333 21.6436Z" fill="white"/>
<path d="M18.0035 13.3789C15.4503 13.3789 13.3787 15.4504 13.3787 18.0038C13.3787 20.5571 15.4503 22.6286 18.0035 22.6286C20.5569 22.6286 22.6284 20.5571 22.6284 18.0038C22.6284 15.4504 20.5569 13.3789 18.0035 13.3789ZM18.0035 21.0038C16.3471 21.0038 15.0035 19.6603 15.0035 18.0038C15.0035 16.3472 16.3471 15.0037 18.0035 15.0037C19.6601 15.0037 21.0035 16.3472 21.0035 18.0038C21.0035 19.6603 19.6601 21.0038 18.0035 21.0038Z" fill="white"/>
<path d="M23.8907 13.1957C23.8907 13.7919 23.4073 14.2753 22.8109 14.2753C22.2147 14.2753 21.7312 13.7919 21.7312 13.1957C21.7312 12.5993 22.2147 12.116 22.8109 12.116C23.4073 12.116 23.8907 12.5993 23.8907 13.1957Z" fill="white"/>
</svg>
