<svg width="40" height="40" viewBox="0 0 40 40" fill="none" xmlns="http://www.w3.org/2000/svg">
<circle cx="20" cy="20" r="20" fill="white"/>
<path d="M18.7756 18.046C19.1816 17.713 19.5717 17.3596 19.9956 17.0508C21.1245 16.229 22.2445 15.3892 23.416 14.6309C23.9845 14.2633 24.6423 14.006 25.2917 13.7959C26.225 13.494 26.8981 13.8857 27.1915 14.8289C27.4018 15.5016 27.3803 16.189 27.1967 16.8623C26.835 18.1883 26.1477 19.3478 25.3001 20.4165C25.1649 20.5867 24.9809 20.7243 24.8011 20.8513C24.1059 21.3403 23.8257 21.3277 23.1184 20.7773C23.0159 20.9396 22.9176 21.1018 22.8124 21.2599C22.2287 22.1354 21.7823 22.2435 20.8784 21.7105C20.6654 22.2199 20.4825 22.7408 20.2327 23.2282C20.0581 23.5846 19.8273 23.9107 19.5491 24.194C19.1621 24.5689 18.6757 24.4613 18.4733 23.9613C18.3314 23.5895 18.2429 23.1994 18.2104 22.8028C18.132 22.0098 18.1026 21.2127 18.0479 20.4176C18.0405 20.3126 18.0048 20.2112 17.9533 19.9749C17.6215 20.2837 17.3464 20.5184 17.0962 20.7762C16.0592 21.8444 16.2427 21.4106 16.2464 22.8485C16.2464 23.5113 16.3258 24.1735 16.3589 24.8362C16.3731 25.1151 16.3616 25.3955 16.3616 25.6765L16.2254 25.6822C16.085 24.5794 15.9441 23.4724 15.7837 22.2078C15.4188 22.6416 15.138 22.9457 14.8898 23.2744C12.9626 25.8408 11.2926 28.5506 10.2825 31.6245C10.1539 32.0009 10.0569 32.3871 9.99223 32.7796C9.92598 33.2208 10.0806 33.3574 10.5217 33.2623C10.7568 33.2136 10.9813 33.1047 11.2022 33.0028C12.9116 32.2262 14.4134 31.1122 15.9346 30.0364C19.7332 27.3365 23.5885 24.7175 27.6484 22.4205C29.1696 21.5603 30.8065 20.9044 32.3935 20.1624C32.564 20.0814 32.759 20.0685 32.9388 20.1261C32.7284 20.2669 32.5249 20.4129 32.313 20.5462C27.9334 23.3353 23.5401 26.1029 19.1789 28.9204C17.3343 30.1118 15.5697 31.4259 13.744 32.649C13.0058 33.14 12.2325 33.5762 11.4304 33.9545C10.9877 34.1533 10.5091 34.2606 10.0238 34.2694C9.3544 34.2878 8.95951 33.8889 9.00631 33.2286C9.04656 32.6124 9.17038 32.0043 9.37439 31.4212C10.6758 27.8096 12.7139 24.6314 15.19 21.7184C15.5376 21.3093 15.7495 20.9212 15.7053 20.312C15.5786 18.568 15.5755 16.8145 15.5192 15.0652C15.4897 14.1352 15.4493 13.2062 15.414 12.2766C15.4082 12.1028 15.414 11.929 15.414 11.6291C15.8116 12.1049 15.7821 12.5781 15.8347 13.0087C16.1228 15.363 16.2985 17.7246 16.2369 20.0983C16.2369 20.1855 16.2496 20.2726 16.2664 20.4817C16.8106 19.9449 17.3007 19.4807 17.7618 18.9891C17.8439 18.9025 17.826 18.7035 17.8207 18.5575C17.7739 17.3181 17.6472 16.0772 17.6846 14.841C17.7371 13.0948 17.9127 11.3529 18.0284 9.60834C18.0973 8.57011 18.151 7.53084 18.213 6.49155C18.233 6.15178 18.2572 5.812 18.2887 5.32415C17.1845 6.79457 16.197 8.13895 15.1737 9.45604C14.2525 10.6413 12.0908 12.6952 11.5702 12.9079C11.6018 12.7976 11.6018 12.7062 11.647 12.6527C13.6466 10.3038 15.4926 7.8287 17.1734 5.24274C17.3798 4.9274 17.623 4.63775 17.898 4.37992C18.3187 3.98185 18.7688 4.09686 18.8892 4.66192C18.9969 5.18153 19.0387 5.71261 19.0138 6.24264C18.9613 7.45784 18.8692 8.67305 18.7541 9.88458C18.5732 11.783 18.4733 13.684 18.5132 15.5909C18.5301 16.3854 18.5911 17.1789 18.6315 17.9725L18.7756 18.046ZM21.6587 21.1691C22.1583 20.8902 22.3102 20.4974 22.4475 20.1035C22.571 19.7485 22.6499 19.3783 22.7777 19.0249C22.855 18.8101 23.0227 18.5948 23.2709 18.7009C23.4124 18.7613 23.5244 18.9818 23.5712 19.1519C23.6516 19.4476 23.6432 19.7674 23.7247 20.0631C23.8115 20.3782 23.995 20.4234 24.2742 20.2333C24.3825 20.1565 24.4822 20.0685 24.5718 19.9707C25.4474 19.0514 26.0799 17.9288 26.4122 16.7042C26.5437 16.2221 26.6325 15.7164 26.4517 15.2028C26.2413 14.611 25.94 14.4151 25.3348 14.6173C24.9332 14.7465 24.5457 14.9157 24.178 15.1225C22.347 16.177 20.6707 17.4463 19.0817 18.8348C18.8629 19.0259 18.7599 19.2386 18.7861 19.5311C18.8839 20.6339 18.9675 21.7336 19.0669 22.8343C19.0811 22.9919 19.1548 23.1421 19.2247 23.3789C19.3824 23.0733 19.5186 22.8679 19.6007 22.6437C19.8972 21.8329 20.1754 21.0157 20.4614 20.2012C20.5272 20.0137 20.5666 19.8058 20.6744 19.6477C20.7475 19.5427 20.9315 19.445 21.053 19.4592C21.1745 19.4733 21.3296 19.6083 21.3811 19.7286C21.4474 19.883 21.4106 20.0778 21.4437 20.2506C21.5005 20.5389 21.5772 20.8256 21.6587 21.1691Z" fill="#1A1A1A"/>
</svg>
