<svg xmlns="http://www.w3.org/2000/svg" width="40.414" height="27.125" viewBox="0 0 40.414 27.125">
  <g id="Back_15" data-name="Back 15" transform="translate(-1.148 -0.938)">
    <path id="Path_314" data-name="Path 314" d="M1.148-5.941V-6.75a4.3,4.3,0,0,0,1.594-.372,1.834,1.834,0,0,0,.674-1.233h.832V0H3.123V-5.941Zm7.008,3.8A1.462,1.462,0,0,0,8.994-.891a2.022,2.022,0,0,0,.867.176,1.628,1.628,0,0,0,1.389-.6A2.147,2.147,0,0,0,11.7-2.637,1.731,1.731,0,0,0,11.165-4a1.861,1.861,0,0,0-1.286-.48,1.937,1.937,0,0,0-.935.211,2,2,0,0,0-.665.586l-.914-.053L8-8.25h4.359v1.02H8.795L8.438-4.9a2.621,2.621,0,0,1,.557-.334,2.826,2.826,0,0,1,1.084-.193,2.773,2.773,0,0,1,1.957.744,2.461,2.461,0,0,1,.8,1.887A3.237,3.237,0,0,1,12.1-.7,2.844,2.844,0,0,1,9.756.211,2.989,2.989,0,0,1,7.942-.366a2.289,2.289,0,0,1-.882-1.772Z" transform="translate(0 26)" fill="#272727"/>
    <path id="Path_313" data-name="Path 313" d="M.656-24.062A.656.656,0,0,0,0-23.406v10.5a.656.656,0,0,0,.656.656h10.5a.656.656,0,0,0,.656-.656v-1.515a.656.656,0,0,0-.672-.656l-6.912.165A10.714,10.714,0,0,1,14-21.219,10.713,10.713,0,0,1,24.719-10.5,10.713,10.713,0,0,1,14,.219,10.68,10.68,0,0,1,6.868-2.5a.658.658,0,0,0-.9.03L4.886-1.386a.657.657,0,0,0,.026.953A13.512,13.512,0,0,0,14,3.062,13.562,13.562,0,0,0,27.562-10.478,13.592,13.592,0,0,0,14.043-24.062,13.548,13.548,0,0,0,2.7-18l.128-5.39a.656.656,0,0,0-.656-.672Z" transform="translate(14 25)" fill="#272727"/>
  </g>
</svg>
