<svg width="36" height="36" viewBox="0 0 36 36" fill="none" xmlns="http://www.w3.org/2000/svg">
<circle cx="18" cy="18" r="18" fill="#B02834"/>
<path d="M28.6082 11.9823C27.8419 12.3184 27.0253 12.5413 26.1739 12.6494C27.0497 12.1265 27.7182 11.3048 28.0325 10.3143C27.2159 10.8011 26.3143 11.145 25.3534 11.337C24.578 10.5113 23.4729 10 22.2673 10C19.9283 10 18.0452 11.8985 18.0452 14.226C18.0452 14.5609 18.0736 14.8829 18.1431 15.1894C14.6307 15.0181 11.5227 13.3347 9.43485 10.7702C9.07034 11.4026 8.85653 12.1265 8.85653 12.9058C8.85653 14.3689 9.61002 15.666 10.7332 16.4169C10.0544 16.404 9.38848 16.2069 8.82433 15.8965C8.82433 15.9094 8.82433 15.9262 8.82433 15.9429C8.82433 17.996 10.2888 19.7013 12.2092 20.0942C11.8653 20.1882 11.4905 20.2333 11.1015 20.2333C10.8311 20.2333 10.558 20.2178 10.3017 20.1611C10.8491 21.8343 12.4024 23.0643 14.2494 23.1043C12.812 24.2287 10.9869 24.9062 9.01109 24.9062C8.66462 24.9062 8.33231 24.8907 8 24.8482C9.87148 26.0551 12.0894 26.7442 14.4813 26.7442C22.2557 26.7442 26.5062 20.3041 26.5062 14.7219C26.5062 14.5351 26.4997 14.3548 26.4907 14.1757C27.3292 13.5807 28.0338 12.8375 28.6082 11.9823Z" fill="white"/>
</svg>
