<svg width="100" height="100" viewBox="0 0 100 100" fill="none" xmlns="http://www.w3.org/2000/svg">
<path d="M90.0663 17.8525L69.25 40.375V25.75C69.25 23.1641 68.2228 20.6842 66.3943 18.8557C64.5658 17.0272 62.0859 16 59.5 16H10.75C8.16414 16 5.68419 17.0272 3.85571 18.8557C2.02723 20.6842 1 23.1641 1 25.75V74.5C1 77.0859 2.02723 79.5658 3.85571 81.3943C5.68419 83.2228 8.16414 84.25 10.75 84.25H59.5C62.0859 84.25 64.5658 83.2228 66.3943 81.3943C68.2228 79.5658 69.25 77.0859 69.25 74.5V62.3125L90.1638 83.2263C90.8427 83.9108 91.7094 84.3787 92.6542 84.5707C93.5991 84.7627 94.5796 84.6702 95.4719 84.3049C96.3642 83.9397 97.1281 83.318 97.6671 82.5186C98.2061 81.7192 98.496 80.7779 98.5 79.8138V21.3138C98.5267 20.3248 98.2518 19.3512 97.712 18.5222C97.1721 17.6932 96.3929 17.0481 95.4777 16.6725C94.5625 16.2969 93.5547 16.2086 92.5881 16.4193C91.6215 16.6301 90.742 17.13 90.0663 17.8525V17.8525Z" fill="black"/>
</svg>
