<svg width="20" height="20" viewBox="0 0 20 20" fill="none" xmlns="http://www.w3.org/2000/svg">
<path d="M10.0035 4.86453C7.16766 4.86453 4.87183 7.16287 4.87183 9.9962C4.87183 12.832 7.17016 15.1279 10.0035 15.1279C12.8393 15.1279 15.1352 12.8295 15.1352 9.9962C15.1352 7.16037 12.8368 4.86453 10.0035 4.86453ZM10.0035 13.327C8.16266 13.327 6.67266 11.8362 6.67266 9.9962C6.67266 8.1562 8.16349 6.66537 10.0035 6.66537C11.8435 6.66537 13.3343 8.1562 13.3343 9.9962C13.3352 11.8362 11.8443 13.327 10.0035 13.327Z" fill="white"/>
<path d="M14.1235 0.0628221C12.2835 -0.0230111 7.72602 -0.0188444 5.88436 0.0628221C4.26602 0.138655 2.83852 0.529488 1.68769 1.68032C-0.235644 3.60365 0.0101894 6.19531 0.0101894 9.99614C0.0101894 13.8861 -0.206477 16.4178 1.68769 18.312C3.61852 20.242 6.24769 19.9895 10.0035 19.9895C13.8569 19.9895 15.1869 19.992 16.5494 19.4645C18.4019 18.7453 19.8002 17.0895 19.9369 14.1153C20.0235 12.2745 20.0185 7.71781 19.9369 5.87615C19.7719 2.36532 17.8877 0.236155 14.1235 0.0628221ZM17.036 17.0395C15.7752 18.3003 14.026 18.1878 9.97936 18.1878C5.81269 18.1878 4.14186 18.2495 2.92269 17.027C1.51852 15.6295 1.77269 13.3853 1.77269 9.98281C1.77269 5.37865 1.30019 2.06282 5.92102 1.82615C6.98269 1.78865 7.29519 1.77615 9.96769 1.77615L10.0052 1.80115C14.446 1.80115 17.9302 1.33615 18.1394 5.95615C18.1869 7.01031 18.1977 7.32698 18.1977 9.99531C18.1969 14.1136 18.2752 15.7945 17.036 17.0395Z" fill="white"/>
<path d="M15.3384 5.86122C16.0007 5.86122 16.5376 5.32433 16.5376 4.66205C16.5376 3.99977 16.0007 3.46289 15.3384 3.46289C14.6762 3.46289 14.1393 3.99977 14.1393 4.66205C14.1393 5.32433 14.6762 5.86122 15.3384 5.86122Z" fill="white"/>
</svg>
