<svg width="28" height="34" viewBox="0 0 28 34" fill="none" xmlns="http://www.w3.org/2000/svg">
<path d="M10.8474 15.962C11.2561 15.6309 11.6489 15.2794 12.0756 14.9723C13.2122 14.1549 14.3398 13.3198 15.5192 12.5657C16.0915 12.2 16.7538 11.9441 17.4076 11.7352C18.3473 11.4349 19.0249 11.8245 19.3203 12.7625C19.532 13.4316 19.5103 14.1152 19.3256 14.7848C18.9614 16.1035 18.2694 17.2567 17.4161 18.3196C17.28 18.4888 17.0947 18.6256 16.9137 18.752C16.2138 19.2382 15.9316 19.2257 15.2196 18.6784C15.1164 18.8397 15.0174 19.0011 14.9115 19.1583C14.3239 20.029 13.8744 20.1365 12.9644 19.6064C12.75 20.1131 12.5658 20.6311 12.3143 21.1158C12.1385 21.4703 11.9062 21.7945 11.6261 22.0763C11.2365 22.4492 10.7468 22.3421 10.543 21.8449C10.4001 21.4751 10.311 21.0872 10.2783 20.6928C10.1994 19.9041 10.1698 19.1113 10.1147 18.3206C10.1073 18.2162 10.0713 18.1153 10.0194 17.8803C9.68538 18.1874 9.4085 18.4209 9.15652 18.6773C8.11255 19.7396 8.29729 19.3082 8.30101 20.7382C8.30101 21.3973 8.38094 22.0559 8.4143 22.715C8.42861 22.9924 8.41695 23.2713 8.41695 23.5507L8.27985 23.5564C8.13849 22.4596 7.99661 21.3587 7.83515 20.101C7.46774 20.5324 7.18505 20.8348 6.9352 21.1618C4.99496 23.7141 3.31361 26.4091 2.29666 29.4661C2.16724 29.8404 2.0695 30.2246 2.00443 30.6149C1.93773 31.0537 2.09337 31.1896 2.53753 31.0949C2.77417 31.0465 3.00023 30.9382 3.22257 30.8369C4.94361 30.0645 6.45556 28.9566 7.98708 27.8867C11.8114 25.2016 15.6929 22.597 19.7803 20.3126C21.3119 19.4571 22.9599 18.8047 24.5576 18.0668C24.7292 17.9863 24.9256 17.9734 25.1065 18.0307C24.8948 18.1707 24.6899 18.3159 24.4766 18.4485C20.0673 21.2223 15.6442 23.9748 11.2534 26.7768C9.39632 27.9617 7.6197 29.2686 5.78165 30.485C5.03839 30.9733 4.25986 31.4072 3.45232 31.7833C3.00662 31.981 2.52486 32.0878 2.0362 32.0965C1.36228 32.1149 0.964711 31.7181 1.01183 31.0614C1.05235 30.4486 1.17701 29.8438 1.3824 29.264C2.69264 25.6721 4.74456 22.5113 7.23747 19.6143C7.5874 19.2074 7.80073 18.8215 7.75628 18.2156C7.62868 16.4812 7.62551 14.7373 7.56886 12.9976C7.53922 12.0726 7.49846 11.1487 7.46299 10.2243C7.45715 10.0514 7.46299 9.87852 7.46299 9.58031C7.86322 10.0535 7.83357 10.5241 7.8865 10.9523C8.1766 13.2937 8.35342 15.6424 8.29148 18.003C8.29148 18.0897 8.3042 18.1764 8.32113 18.3843C8.86904 17.8505 9.36244 17.3889 9.82671 16.9C9.9093 16.8138 9.89131 16.6159 9.88601 16.4707C9.83889 15.2381 9.71131 14.004 9.74891 12.7746C9.80184 11.038 9.97864 9.30559 10.0951 7.57058C10.1645 6.53805 10.2185 5.50448 10.2809 4.47088C10.3011 4.13296 10.3254 3.79505 10.3572 3.30987C9.24543 4.77224 8.25124 6.10925 7.22106 7.41912C6.29356 8.59792 4.11723 10.6405 3.59314 10.852C3.62489 10.7424 3.62489 10.6515 3.67043 10.5982C5.68359 8.26224 7.54207 5.8007 9.23432 3.22891C9.44207 2.9153 9.68696 2.62723 9.96382 2.37081C10.3874 1.97493 10.8405 2.08931 10.9617 2.65128C11.0701 3.16804 11.1123 3.6962 11.0872 4.22333C11.0343 5.43188 10.9416 6.64042 10.8257 7.84531C10.6436 9.73335 10.543 11.624 10.5832 13.5204C10.6002 14.3106 10.6616 15.0997 10.7023 15.8889L10.8474 15.962ZM13.75 19.068C14.2529 18.7906 14.4059 18.4 14.5441 18.0083C14.6685 17.6552 14.7479 17.287 14.8766 16.9355C14.9544 16.7219 15.1233 16.5078 15.3731 16.6133C15.5156 16.6734 15.6283 16.8927 15.6754 17.0619C15.7564 17.356 15.7479 17.674 15.83 17.9681C15.9174 18.2814 16.1021 18.3263 16.3832 18.1373C16.4922 18.061 16.5927 17.9734 16.6829 17.8761C17.5644 16.9619 18.2012 15.8455 18.5357 14.6276C18.6681 14.1481 18.7575 13.6452 18.5754 13.1344C18.3637 12.5458 18.0603 12.351 17.451 12.5521C17.0467 12.6806 16.6565 12.8489 16.2863 13.0545C14.443 14.1032 12.7553 15.3656 11.1555 16.7465C10.9353 16.9366 10.8315 17.1481 10.858 17.439C10.9564 18.5358 11.0406 19.6294 11.1407 20.7241C11.155 20.8808 11.2291 21.0302 11.2995 21.2657C11.4583 20.9618 11.5954 20.7575 11.678 20.5345C11.9766 19.7281 12.2566 18.9155 12.5446 18.1054C12.6108 17.919 12.6505 17.7122 12.759 17.5549C12.8326 17.4505 13.0179 17.3533 13.1402 17.3674C13.2625 17.3815 13.4186 17.5158 13.4705 17.6354C13.5372 17.7889 13.5002 17.9827 13.5335 18.1545C13.5907 18.4412 13.668 18.7264 13.75 19.068Z" fill="#1A1A1A"/>
</svg>
